<mxfile host="app.diagrams.net" modified="2022-11-20T16:24:36.768Z" agent="5.0 (Windows)" etag="Rj8ZNdKV3j3sqGwfz5zF" version="20.5.3" type="github">
  <diagram id="A4pjKxijmtSUQodYDw6I" name="Страница 1">
    <mxGraphModel dx="1667" dy="937" grid="1" gridSize="10" guides="1" tooltips="1" connect="1" arrows="1" fold="1" page="1" pageScale="1" pageWidth="1169" pageHeight="1654" math="0" shadow="0">
      <root>
        <mxCell id="0" />
        <mxCell id="1" parent="0" />
        <mxCell id="Ha_gX0q8dEeYLZSzi9s1-1" value="Таблица(библиотечный элемент" style="swimlane;whiteSpace=wrap;html=1;" vertex="1" parent="1">
          <mxGeometry x="900" y="30" width="250" height="700" as="geometry">
            <mxRectangle x="650" y="170" width="140" height="30" as="alternateBounds" />
          </mxGeometry>
        </mxCell>
        <mxCell id="Ha_gX0q8dEeYLZSzi9s1-6" value="Чтение Excel файла" style="swimlane;whiteSpace=wrap;html=1;" vertex="1" parent="1">
          <mxGeometry x="30" y="30" width="400" height="530" as="geometry">
            <mxRectangle x="650" y="170" width="140" height="30" as="alternateBounds" />
          </mxGeometry>
        </mxCell>
        <mxCell id="Ha_gX0q8dEeYLZSzi9s1-7" value="Сбор данных из модели" style="swimlane;whiteSpace=wrap;html=1;" vertex="1" parent="1">
          <mxGeometry x="30" y="640" width="400" height="980" as="geometry">
            <mxRectangle x="650" y="170" width="140" height="30" as="alternateBounds" />
          </mxGeometry>
        </mxCell>
        <mxCell id="Ha_gX0q8dEeYLZSzi9s1-9" value="Связь с Эксель или Спец?" style="strokeWidth=2;html=1;shape=mxgraph.flowchart.decision;whiteSpace=wrap;" vertex="1" parent="1">
          <mxGeometry x="585" y="150" width="100" height="100" as="geometry" />
        </mxCell>
        <mxCell id="Ha_gX0q8dEeYLZSzi9s1-8" value="Приведение данных к фромату выгрузки в билиотечный элемент" style="swimlane;whiteSpace=wrap;html=1;" vertex="1" parent="1">
          <mxGeometry x="520" y="540" width="330" height="200" as="geometry">
            <mxRectangle x="490" y="1160" width="250" height="20" as="alternateBounds" />
          </mxGeometry>
        </mxCell>
        <mxCell id="Ha_gX0q8dEeYLZSzi9s1-18" value="Use" style="endArrow=open;endSize=12;dashed=1;html=1;rounded=0;exitX=0;exitY=0.5;exitDx=0;exitDy=0;exitPerimeter=0;entryX=1;entryY=0;entryDx=0;entryDy=0;" edge="1" parent="1" source="Ha_gX0q8dEeYLZSzi9s1-9" target="Ha_gX0q8dEeYLZSzi9s1-6">
          <mxGeometry width="160" relative="1" as="geometry">
            <mxPoint x="390" y="480" as="sourcePoint" />
            <mxPoint x="550" y="480" as="targetPoint" />
          </mxGeometry>
        </mxCell>
        <mxCell id="Ha_gX0q8dEeYLZSzi9s1-19" value="Use" style="endArrow=open;endSize=12;dashed=1;html=1;rounded=0;exitX=0.5;exitY=1;exitDx=0;exitDy=0;exitPerimeter=0;entryX=1;entryY=0;entryDx=0;entryDy=0;" edge="1" parent="1" source="Ha_gX0q8dEeYLZSzi9s1-9" target="Ha_gX0q8dEeYLZSzi9s1-7">
          <mxGeometry width="160" relative="1" as="geometry">
            <mxPoint x="620" y="140" as="sourcePoint" />
            <mxPoint x="440" y="39.999999999999886" as="targetPoint" />
          </mxGeometry>
        </mxCell>
        <mxCell id="Ha_gX0q8dEeYLZSzi9s1-20" value="Use" style="endArrow=open;endSize=12;dashed=1;html=1;rounded=0;exitX=1;exitY=1;exitDx=0;exitDy=0;entryX=0;entryY=0.25;entryDx=0;entryDy=0;" edge="1" parent="1" source="Ha_gX0q8dEeYLZSzi9s1-6" target="Ha_gX0q8dEeYLZSzi9s1-8">
          <mxGeometry width="160" relative="1" as="geometry">
            <mxPoint x="390" y="480" as="sourcePoint" />
            <mxPoint x="550" y="480" as="targetPoint" />
          </mxGeometry>
        </mxCell>
        <mxCell id="Ha_gX0q8dEeYLZSzi9s1-21" value="Use" style="endArrow=open;endSize=12;dashed=1;html=1;rounded=0;entryX=0;entryY=0.75;entryDx=0;entryDy=0;" edge="1" parent="1" target="Ha_gX0q8dEeYLZSzi9s1-8">
          <mxGeometry x="0.0252" y="6" width="160" relative="1" as="geometry">
            <mxPoint x="430" y="1635" as="sourcePoint" />
            <mxPoint x="550" y="480" as="targetPoint" />
            <mxPoint as="offset" />
          </mxGeometry>
        </mxCell>
        <mxCell id="Ha_gX0q8dEeYLZSzi9s1-22" value="Use" style="endArrow=open;endSize=12;dashed=1;html=1;rounded=0;exitX=1;exitY=0.5;exitDx=0;exitDy=0;" edge="1" parent="1" source="Ha_gX0q8dEeYLZSzi9s1-8">
          <mxGeometry width="160" relative="1" as="geometry">
            <mxPoint x="390" y="380" as="sourcePoint" />
            <mxPoint x="900" y="640" as="targetPoint" />
          </mxGeometry>
        </mxCell>
        <mxCell id="Ha_gX0q8dEeYLZSzi9s1-23" value="Use" style="endArrow=open;endSize=12;dashed=1;html=1;rounded=0;exitX=0;exitY=0.25;exitDx=0;exitDy=0;entryX=1;entryY=0.5;entryDx=0;entryDy=0;entryPerimeter=0;" edge="1" parent="1" source="Ha_gX0q8dEeYLZSzi9s1-1" target="Ha_gX0q8dEeYLZSzi9s1-9">
          <mxGeometry width="160" relative="1" as="geometry">
            <mxPoint x="390" y="380" as="sourcePoint" />
            <mxPoint x="550" y="380" as="targetPoint" />
          </mxGeometry>
        </mxCell>
      </root>
    </mxGraphModel>
  </diagram>
</mxfile>
